<?xml version="1.0" encoding="UTF-8" standalone="no"?>
<!-- Created with Inkscape (http://www.inkscape.org/) -->

<svg
   width="23.827339mm"
   height="33.144417mm"
   viewBox="0 0 23.827339 33.144417"
   version="1.1"
   id="svg1"
   xml:space="preserve"
   inkscape:version="1.3.1 (6036e22fae, 2023-11-19, custom)"
   sodipodi:docname="logo.svg"
   xmlns:inkscape="http://www.inkscape.org/namespaces/inkscape"
   xmlns:sodipodi="http://sodipodi.sourceforge.net/DTD/sodipodi-0.dtd"
   xmlns:xlink="http://www.w3.org/1999/xlink"
   xmlns="http://www.w3.org/2000/svg"
   xmlns:svg="http://www.w3.org/2000/svg"><sodipodi:namedview
     id="namedview1"
     pagecolor="#505050"
     bordercolor="#eeeeee"
     borderopacity="1"
     inkscape:showpageshadow="0"
     inkscape:pageopacity="0"
     inkscape:pagecheckerboard="0"
     inkscape:deskcolor="#d1d1d1"
     inkscape:document-units="mm"
     inkscape:zoom="6.2096482"
     inkscape:cx="49.761273"
     inkscape:cy="64.415888"
     inkscape:window-width="1920"
     inkscape:window-height="1007"
     inkscape:window-x="0"
     inkscape:window-y="0"
     inkscape:window-maximized="1"
     inkscape:current-layer="layer1"
     showgrid="false" /><defs
     id="defs1"><linearGradient
       id="linearGradient6"
       inkscape:collect="always"><stop
         style="stop-color:#000000;stop-opacity:1;"
         offset="0"
         id="stop6" /><stop
         style="stop-color:#e6e6e6;stop-opacity:1"
         offset="1"
         id="stop7" /></linearGradient><linearGradient
       inkscape:collect="always"
       xlink:href="#linearGradient6"
       id="linearGradient7"
       x1="378.02167"
       y1="-24.612391"
       x2="376.89938"
       y2="-42.802448"
       gradientUnits="userSpaceOnUse"
       gradientTransform="translate(29.989637)" /></defs><g
     inkscape:label="Layer 1"
     inkscape:groupmode="layer"
     id="layer1"
     transform="translate(-396.79401,46.679766)"><path
       style="fill:url(#linearGradient7);fill-opacity:1;stroke-width:0.168855"
       d="m 408.70987,-45.039645 c 5.54617,0 10.53717,5.195231 10.53717,10.741384 0,5.546179 -5.51608,10.920945 -10.53717,15.942043 -5.0211,-5.021098 -10.55033,-10.395864 -10.55033,-15.942043 0,-5.546153 5.00417,-10.741384 10.55033,-10.741384 z"
       id="path6"
       sodipodi:nodetypes="sscss" /><g
       style="fill:none"
       id="g1"
       transform="matrix(0.89578518,0,0,0.89578518,397.95826,-46.984912)"><path
         d="M 3,13.6493 C 3,16.6044 5.41766,19 8.4,19 h 8.1 C 18.9853,19 21,16.9839 21,14.4969 21,12.6503 19.8893,10.9449 18.3,10.25 18.1317,7.32251 15.684,5 12.6893,5 10.3514,5 8.34694,6.48637 7.5,8.5 4.8,8.9375 3,11.2001 3,13.6493 Z"
         stroke="#000000"
         stroke-width="2"
         stroke-linecap="round"
         stroke-linejoin="round"
         id="path1"
         style="fill:#000000;stroke:none" /></g><path
       id="path2"
       style="fill:#000000;stroke-width:0.168855"
       d="m 408.70764,-46.679766 c -6.57973,0 -11.91363,5.3339 -11.91363,11.913626 0,6.579757 5.95681,11.913663 11.91363,17.870485 5.95682,-5.956822 11.91371,-11.290728 11.91371,-17.870485 0,-6.579726 -5.33395,-11.913626 -11.91371,-11.913626 z m 0,2.339305 c 5.54617,0 10.04219,4.496047 10.04219,10.0422 0,5.546179 -5.0211,10.042202 -10.04219,15.0633 -5.0211,-5.021098 -10.0422,-9.517121 -10.0422,-15.0633 0,-5.546153 4.49604,-10.0422 10.0422,-10.0422 z" /><path
       id="path5"
       style="fill:#000000;stroke:none;stroke-width:0.0874223;stroke-linecap:square;paint-order:markers fill stroke"
       d="m 410.14462,-17.461394 -1.44178,1.30391 -1.4428,-1.30236 c -1.50075,0.36617 -3.06834,0.57519 -4.44745,1.312861 -1.05304,0.635543 -0.57329,1.246722 0.18119,1.642002 1.10269,0.577707 3.24625,0.96956 5.70958,0.969445 2.1312,-4.6e-5 4.0228,-0.293474 5.20793,-0.746784 2.55742,-0.978205 0.46276,-2.046948 -0.11033,-2.302552 -1.12357,-0.501124 -2.61072,-0.685233 -3.65634,-0.876522 z"
       sodipodi:nodetypes="cccsscssc" /></g></svg>
