<?xml version="1.0" encoding="UTF-8" standalone="no"?>
<!-- Created with Inkscape (http://www.inkscape.org/) -->

<svg
   width="23.827339mm"
   height="32.519936mm"
   viewBox="0 0 23.827339 32.519936"
   version="1.1"
   id="svg1"
   xml:space="preserve"
   inkscape:version="1.3.1 (6036e22fae, 2023-11-19, custom)"
   sodipodi:docname="logo.svg"
   xmlns:inkscape="http://www.inkscape.org/namespaces/inkscape"
   xmlns:sodipodi="http://sodipodi.sourceforge.net/DTD/sodipodi-0.dtd"
   xmlns="http://www.w3.org/2000/svg"
   xmlns:svg="http://www.w3.org/2000/svg"><sodipodi:namedview
     id="namedview1"
     pagecolor="#505050"
     bordercolor="#eeeeee"
     borderopacity="1"
     inkscape:showpageshadow="0"
     inkscape:pageopacity="0"
     inkscape:pagecheckerboard="0"
     inkscape:deskcolor="#d1d1d1"
     inkscape:document-units="mm"
     inkscape:zoom="2.2866549"
     inkscape:cx="32.799002"
     inkscape:cy="57.288924"
     inkscape:window-width="1920"
     inkscape:window-height="1007"
     inkscape:window-x="0"
     inkscape:window-y="0"
     inkscape:window-maximized="1"
     inkscape:current-layer="layer1"
     showgrid="false" /><defs
     id="defs1" /><g
     inkscape:label="Layer 1"
     inkscape:groupmode="layer"
     id="layer1"
     transform="translate(-396.79401,46.679766)"><g
       style="fill:none"
       id="g1"
       transform="matrix(0.89578518,0,0,0.89578518,397.95826,-46.984912)"><path
         d="M 3,13.6493 C 3,16.6044 5.41766,19 8.4,19 h 8.1 C 18.9853,19 21,16.9839 21,14.4969 21,12.6503 19.8893,10.9449 18.3,10.25 18.1317,7.32251 15.684,5 12.6893,5 10.3514,5 8.34694,6.48637 7.5,8.5 4.8,8.9375 3,11.2001 3,13.6493 Z"
         stroke="#000000"
         stroke-width="2"
         stroke-linecap="round"
         stroke-linejoin="round"
         id="path1" /></g><path
       id="path2"
       style="fill:#000000;stroke-width:0.168855"
       d="m 408.70764,-46.679766 c -6.57973,0 -11.91363,5.3339 -11.91363,11.913626 0,6.579757 5.95681,11.913663 11.91363,17.870485 5.95682,-5.956822 11.91371,-11.290728 11.91371,-17.870485 0,-6.579726 -5.33395,-11.913626 -11.91371,-11.913626 z m 0,2.339305 c 5.54617,0 10.04219,4.496047 10.04219,10.0422 0,5.546179 -5.0211,10.042202 -10.04219,15.0633 -5.0211,-5.021098 -10.0422,-9.517121 -10.0422,-15.0633 0,-5.546153 4.49604,-10.0422 10.0422,-10.0422 z" /><path
       id="path5"
       style="fill:#000000;stroke:none;stroke-width:0.087026;stroke-linecap:square;paint-order:markers fill stroke"
       d="m 411.22319,-18.63656 -0.45756,0.474101 c 2.983,0.224115 5.08555,0.912807 5.08577,1.709668 -2e-5,0.987242 -3.19835,1.787575 -7.1437,1.787576 -3.94537,6e-6 -7.14374,-0.800329 -7.14376,-1.787576 0.006,-0.787353 2.06393,-1.467876 4.99276,-1.698963 l -0.45674,-0.473269 a 8.3366326,2.2964782 0 0 0 -5.72895,2.168724 8.3366326,2.2964782 0 0 0 8.33669,2.296467 8.3366326,2.2964782 0 0 0 8.33662,-2.296467 8.3366326,2.2964782 0 0 0 -5.82113,-2.180261 z" /><ellipse
       style="fill:#000000;stroke:none;stroke-width:0.0874223;stroke-linecap:square;paint-order:markers fill stroke"
       id="path7"
       cx="408.70261"
       cy="-16.750845"
       rx="2.8734334"
       ry="0.82182652" /></g></svg>
