<?xml version="1.0" encoding="UTF-8" standalone="no"?>
<!-- Created with Inkscape (http://www.inkscape.org/) -->

<svg
   width="34.652271mm"
   height="34.652271mm"
   viewBox="0 0 34.652271 34.652271"
   version="1.1"
   id="svg1"
   xml:space="preserve"
   inkscape:version="1.4.3 (0d15f75, 2025-12-25)"
   sodipodi:docname="logo.svg"
   xmlns:inkscape="http://www.inkscape.org/namespaces/inkscape"
   xmlns:sodipodi="http://sodipodi.sourceforge.net/DTD/sodipodi-0.dtd"
   xmlns="http://www.w3.org/2000/svg"
   xmlns:svg="http://www.w3.org/2000/svg"><sodipodi:namedview
     id="namedview1"
     pagecolor="#505050"
     bordercolor="#eeeeee"
     borderopacity="1"
     inkscape:showpageshadow="0"
     inkscape:pageopacity="0"
     inkscape:pagecheckerboard="0"
     inkscape:deskcolor="#d1d1d1"
     inkscape:document-units="mm"
     inkscape:zoom="1.196438"
     inkscape:cx="-251.58011"
     inkscape:cy="196.83427"
     inkscape:window-width="1920"
     inkscape:window-height="1111"
     inkscape:window-x="-9"
     inkscape:window-y="-9"
     inkscape:window-maximized="1"
     inkscape:current-layer="layer1"
     showgrid="false" /><defs
     id="defs1" /><g
     inkscape:label="Layer 1"
     inkscape:groupmode="layer"
     id="layer1"
     transform="translate(-391.89496,47.216358)"><path
       id="path15"
       style="fill:#08202f;fill-opacity:1;stroke-width:0.127481"
       d="m 408.88167,-46.80765 c -2.18693,0.03119 -4.35141,0.468668 -6.36663,1.31063 -3.08386,1.288441 -5.69129,3.435498 -7.58879,6.248855 -1.59441,2.363977 -2.40815,4.648415 -2.80337,7.870121 -0.0791,0.644822 -0.0783,3.275583 10e-4,3.93509 0.4096,3.396541 1.71065,6.467034 3.85296,9.093111 0.82403,1.010093 2.35401,2.412401 3.50787,3.215236 0.82833,0.57633 1.68061,1.066677 2.56774,1.474945 l 0.12497,-0.0944 c -10e-4,-0.0013 -0.002,-0.0027 -0.004,-0.004 -0.0131,-0.01184 -0.0167,-0.710975 -0.008,-1.553648 l 0.0157,-1.532164 -0.32521,-0.247133 c -1.18455,-0.90007 -2.29545,-2.398922 -3.17052,-4.277895 -0.41882,-0.899304 -0.66566,-1.548241 -1.70401,-4.479464 -0.22514,-0.635546 -0.30083,-1.149566 -0.26974,-1.831769 0.015,-0.327476 0.0622,-0.723258 0.10515,-0.879498 0.21293,-0.775227 0.72498,-1.560612 1.3285,-2.037671 0.23056,-0.182245 0.2408,-0.200867 0.31725,-0.576605 0.15289,-0.751361 0.45474,-1.301279 0.98884,-1.801561 0.38054,-0.356445 0.81596,-0.621734 1.25125,-0.762207 l 0.31517,-0.101654 0.14995,-0.38138 c 0.48275,-1.227872 1.47402,-2.053851 2.78794,-2.323044 0.41359,-0.08474 0.50212,-0.134309 0.50362,-0.282091 4.1e-4,-0.03945 0.11058,-0.296694 0.24484,-0.571592 0.21172,-0.433473 0.29927,-0.554512 0.65978,-0.912081 0.34521,-0.342411 0.4915,-0.449097 0.86331,-0.629496 0.60322,-0.292688 1.11573,-0.410283 1.79018,-0.410688 1.07136,-6.7e-4 2.05192,0.327794 3.12928,1.04821 0.97078,0.649153 1.7928,1.55712 2.29436,2.534318 0.2206,0.429799 0.29766,0.535072 0.48709,0.665084 0.34269,0.23519 2.46386,1.779655 2.8686,2.088672 0.19649,0.150015 0.4973,0.41998 0.66851,0.599986 0.56637,0.595499 0.81165,1.004083 1.03125,1.717826 0.12116,0.393785 0.12907,0.475022 0.1288,1.324516 -2.6e-4,0.807755 -0.0144,0.970769 -0.13166,1.516877 -0.20965,0.976089 -0.36789,1.478862 -1.02184,3.246357 -0.82626,2.233213 -0.99934,2.796097 -1.19348,3.881992 -0.15335,0.857856 -0.20456,1.515158 -0.20241,2.595931 0.002,1.302326 0.0693,2.024643 0.34468,3.732889 0.0522,0.324018 0.12246,0.619589 0.12246,0.619589 1.01591,-0.492602 2.01615,-1.087824 2.81348,-1.69103 2.55467,-1.932689 4.61549,-4.59047 5.7282,-7.387499 0.54763,-1.376574 1.01934,-3.308051 1.16425,-4.767071 0.15035,-1.513786 0.0875,-3.442267 -0.16278,-4.991957 -0.78086,-4.835057 -3.96665,-9.403163 -8.29693,-11.897097 -0.62696,-0.361094 -1.9082,-0.983423 -2.40635,-1.168782 -2.10476,-0.783172 -4.31409,-1.158192 -6.50101,-1.126984 z m 0.34692,0.673041 c 0.0759,0.0013 0.15182,0.01915 0.22349,0.0542 0.34782,0.170018 0.34605,0.156829 0.33155,2.491336 -0.0144,2.306951 -0.005,2.240168 -0.34433,2.401328 -0.20104,0.09541 -0.34913,0.09403 -0.50816,-0.0047 -0.28355,-0.17598 -0.27972,-0.142362 -0.27972,-2.45987 v -2.120564 l 0.12259,-0.145617 c 0.12081,-0.143567 0.2876,-0.219294 0.45458,-0.216154 z m -6.11099,2.215727 c 0.0437,3.4e-5 0.089,0.0054 0.13516,0.0163 0.0918,0.022 0.57388,0.471658 1.50048,1.399519 1.1914,1.193035 1.36958,1.390337 1.39945,1.550231 0.0449,0.240285 -0.0428,0.524068 -0.20004,0.64778 -0.0837,0.06584 -0.19619,0.09828 -0.34421,0.09921 l -0.21984,0.0013 -1.32647,-1.341744 c -0.7296,-0.737948 -1.3672,-1.408385 -1.41689,-1.489877 -0.24244,-0.397582 0.0492,-0.88316 0.47236,-0.882849 z m 12.09693,6.36e-4 c 0.28102,-0.0072 0.55044,0.173686 0.60627,0.427924 0.0709,0.322503 0.0208,0.388757 -1.34914,1.781944 -0.72169,0.733976 -1.36733,1.371849 -1.43469,1.417525 -0.15233,0.103268 -0.4712,0.108149 -0.61226,0.0093 -0.24411,-0.170979 -0.31887,-0.551067 -0.15866,-0.806863 0.0491,-0.07859 0.67613,-0.737406 1.39309,-1.464055 0.88269,-0.894616 1.34592,-1.330802 1.43483,-1.350886 0.0401,-0.0091 0.0804,-0.01394 0.12056,-0.01495 z m 1.82891,5.044845 c 2.11697,8.2e-5 2.12541,0.0013 2.29563,0.349909 0.12008,0.245895 0.0473,0.516578 -0.17542,0.652388 -0.14441,0.08806 -0.25371,0.09287 -2.13443,0.093 -1.89886,1.75e-4 -1.98726,-0.004 -2.10132,-0.0935 -0.25309,-0.199088 -0.28906,-0.599803 -0.0717,-0.797795 0.22132,-0.201551 0.24869,-0.204096 2.18719,-0.204015 z m -8.82426,0.03113 c -0.17907,-0.01026 -0.35636,-0.009 -0.53077,0.004 -0.19933,0.01502 -0.39488,0.04547 -0.58505,0.09209 -1.0978,0.269058 -1.9981,1.183643 -2.2659,2.301836 -0.0345,0.144086 -0.0664,0.267934 -0.0707,0.275256 -0.005,0.0073 -0.19224,0.03431 -0.41738,0.05989 -0.41925,0.04764 -0.94865,0.211837 -1.26157,0.391355 -0.7643,0.438461 -1.41715,1.283908 -1.58519,2.052883 -0.0335,0.15329 -0.0838,0.28448 -0.11175,0.291517 -0.0279,0.0071 -0.1788,0.03688 -0.33519,0.06625 -1.06897,0.201186 -1.91672,1.130692 -2.11002,2.313482 l -0.0758,0.463788 -0.26535,0.181834 c -0.44846,0.307372 -0.84839,0.798072 -1.0965,1.345228 -0.43233,0.953495 -0.42704,1.913052 0.0174,3.146519 0.11529,0.319939 0.32132,0.903216 0.45793,1.296183 0.69195,1.9906 1.31362,3.437237 1.91661,4.45993 0.55865,0.947484 1.41198,1.944104 2.17645,2.541992 0.16748,0.130986 0.36504,0.295516 0.43901,0.365546 l 0.13446,0.127266 v 1.742247 c 0,1.301312 -0.002,1.907057 -0.002,1.907057 0.34844,0.139094 0.86663,0.348325 1.22683,0.463782 0.0471,-0.929682 0.0507,-1.88597 0.0569,-2.825065 l 0.005,-1.077165 0.25008,0.04648 c 0.54884,0.101936 1.49439,-0.05927 1.90328,-0.324586 0.34245,-0.222164 0.33317,-0.676797 -0.0176,-0.858143 -0.13057,-0.06754 -0.1957,-0.06978 -0.52805,-0.01807 -1.94396,0.302406 -3.97469,-1.258728 -5.21927,-4.012333 -0.24237,-0.536195 -0.63552,-1.562439 -0.59859,-1.562439 0.009,0 0.15042,0.106722 0.3123,0.237158 0.91784,0.739607 2.17625,1.076516 3.04059,0.813981 0.48251,-0.146556 0.87825,-0.413009 1.35026,-0.909007 0.29082,-0.305606 0.45747,-0.530687 0.59245,-0.800374 0.10327,-0.20637 0.19598,-0.39976 0.20605,-0.429737 0.0106,-0.02998 0.13266,-0.08414 0.27239,-0.120363 0.25047,-0.06497 0.25368,-0.06442 0.22559,0.03539 -0.0845,0.300165 -0.1322,0.923376 -0.10787,1.411105 0.063,1.263559 0.56844,2.380332 1.3848,3.059713 0.27493,0.228801 0.60079,0.4141 0.7322,0.416407 0.0947,0.0013 0.25007,-0.179728 0.25007,-0.291863 0,-0.0563 -0.11022,-0.274288 -0.24498,-0.484299 -0.56205,-0.876202 -0.84026,-1.66654 -0.8834,-2.50941 -0.0615,-1.202576 0.34327,-2.276047 1.28915,-3.418418 0.20631,-0.249184 0.7676,-0.851964 1.24727,-1.339517 l 0.8721,-0.886468 0.1341,0.08052 c 0.95166,0.571253 1.22573,0.666822 1.99176,0.694871 0.66667,0.02443 0.92864,-0.02958 1.1327,-0.233667 0.12096,-0.120973 0.13723,-0.166175 0.11317,-0.314824 -0.0513,-0.315667 -0.13966,-0.358014 -0.82669,-0.396106 -0.68145,-0.03776 -1.13369,-0.153702 -1.49587,-0.383403 -0.37787,-0.23965 -0.3785,-0.241295 -0.27302,-0.733464 0.0665,-0.310085 0.0864,-0.55167 0.0723,-0.873143 -0.0209,-0.474203 -0.0705,-0.592359 -0.33003,-0.786143 -0.11023,-0.0823 -0.14247,-0.08613 -0.27274,-0.03215 -0.17907,0.07417 -0.20055,0.112617 -0.33185,0.594261 -0.15027,0.551272 -0.35403,0.905065 -0.74163,1.287745 -0.40396,0.398834 -0.73688,0.604141 -1.29695,0.799812 -0.54298,0.189702 -1.3884,0.236245 -1.9321,0.106404 -0.70625,-0.168658 -1.35482,-0.615563 -1.65649,-1.141498 -0.26521,-0.462368 -0.16737,-0.691461 0.49183,-1.151967 0.84849,-0.592739 1.89025,-1.488416 3.0129,-2.590484 1.05113,-1.031869 1.22704,-1.145404 1.82842,-1.180219 0.42709,-0.0247 0.81938,0.06117 1.23073,0.269464 0.5059,0.256181 3.85405,2.516103 4.71223,3.180631 0.45693,0.353813 0.66757,0.58815 0.86262,0.959807 0.20467,0.389989 0.26539,0.705942 0.23875,1.241831 -0.0482,0.970148 -0.35104,2.020929 -1.56007,5.412551 -0.75665,2.122642 -0.96912,3.058129 -1.05462,4.643921 -0.0641,1.188981 -10e-4,2.381272 0.22816,4.358555 0.0944,0.812127 0.17402,1.57259 0.17695,1.689847 l 0.006,0.213156 -10e-4,5.41e-4 v 0.06571 c 0.41898,-0.144717 0.85633,-0.319491 1.29674,-0.516604 0,0 -0.0378,-0.261486 -0.1015,-0.666687 -0.33248,-2.119347 -0.4412,-4.24391 -0.28769,-5.620544 0.16126,-1.445927 0.32206,-2.053775 1.13571,-4.292821 1.17145,-3.223669 1.37835,-4.016578 1.37845,-5.28124 7e-5,-1.013077 -0.18455,-1.630812 -0.68762,-2.300645 -0.2765,-0.368166 -0.63298,-0.680741 -1.47732,-1.295276 -0.32371,-0.235609 -1.08812,-0.79933 -1.69871,-1.252718 -1.01529,-0.753899 -1.11826,-0.843466 -1.20449,-1.048211 -0.31011,-0.736264 -0.59276,-1.151182 -1.21141,-1.778039 -1.05204,-1.065986 -2.39271,-1.700984 -3.64617,-1.77274 z m -0.36191,1.250628 c 0.67762,0.0088 1.49965,0.259496 2.11232,0.674219 0.28081,0.190088 0.77728,0.583433 0.77755,0.616104 1.3e-4,0.01313 -0.18736,0.0112 -0.41662,-0.004 -0.47531,-0.03188 -1.10994,0.05386 -1.42253,0.19216 -0.38075,0.16842 -0.8057,0.499625 -1.45193,1.131584 -0.35619,0.348325 -0.65633,0.632325 -0.6669,0.631106 -0.0106,-0.0013 -0.18716,-0.285189 -0.39248,-0.631106 l -0.37329,-0.628934 0.0244,-0.31154 c 0.0614,-0.78525 0.51677,-1.393958 1.19313,-1.594819 0.1807,-0.05366 0.3905,-0.0776 0.61638,-0.07465 z m -3.0496,2.735051 c 0.0776,0.0067 0.13488,0.02057 0.17561,0.04236 0.10174,0.05433 0.90545,1.149213 0.90545,1.233527 0,0.01644 -0.15537,0.154339 -0.3453,0.306445 -0.18994,0.152107 -0.61329,0.490565 -0.94077,0.752092 -0.32746,0.261526 -0.7392,0.615332 -0.91501,0.786209 -0.21956,0.213415 -0.32659,0.289251 -0.34175,0.242323 -0.0121,-0.03756 -0.046,-0.146084 -0.0751,-0.241205 -0.0291,-0.09512 -0.1795,-0.37021 -0.33408,-0.611287 -0.15458,-0.241083 -0.29527,-0.502806 -0.31259,-0.581633 -0.17222,-0.784119 0.88147,-1.859925 1.88675,-1.926383 0.12156,-0.008 0.21928,-0.009 0.29682,-0.0027 z m -3.44048,2.701286 c 0.10916,-0.0034 0.20652,0.0226 0.27833,0.08135 0.056,0.04581 0.27079,0.394137 0.47732,0.774002 0.65685,1.208166 1.01569,1.72498 1.62245,2.336855 0.76631,0.772764 1.30984,1.098677 2.11086,1.265697 0.38914,0.08114 0.4948,0.155606 0.53656,0.378168 0.0502,0.267494 -0.0623,0.48666 -0.45074,0.878876 -0.28436,0.287085 -0.42245,0.388398 -0.6385,0.46839 -0.35432,0.131183 -0.65661,0.127785 -0.99462,-0.0112 -0.38933,-0.160138 -0.6721,-0.384798 -1.28642,-1.021982 -0.48433,-0.502366 -2.11288,-2.311513 -2.57457,-2.86009 -0.23855,-0.283424 -0.31174,-0.609778 -0.23284,-1.03802 0.0677,-0.367252 0.16979,-0.582615 0.40637,-0.85689 0.20834,-0.241543 0.50564,-0.388182 0.7458,-0.395131 z m -2.06341,2.951152 c 0.0834,0 0.41377,0.317041 0.8961,0.859887 1.44998,1.631928 2.80028,3.033993 3.11393,3.233311 0.11944,0.07591 0.30827,0.162107 0.41962,0.19153 0.11128,0.02944 0.20241,0.07164 0.20241,0.09384 0,0.0222 -0.0869,0.170588 -0.19313,0.329683 -0.21001,0.314477 -0.54655,0.608695 -0.88166,0.770925 -0.41673,0.201741 -0.68053,0.161545 -1.38466,-0.211202 -0.93664,-0.495816 -2.56121,-1.938928 -2.87397,-2.552948 -0.27887,-0.547481 -0.24802,-1.420511 0.0726,-2.053159 0.14241,-0.281029 0.50424,-0.661869 0.6288,-0.661869 z"
       sodipodi:nodetypes="sssccsscccsccsssssssccsssssscsssssscssssscsssssssssssssccsssssscccsssssssssssssscssssssssssssscccsssssccscccccssssssssssssssssssscccsssssssssssssssssssssssscccccsssssssssssscssssscsssssssssssscsssssssssssssssssssssssssss" /></g></svg>
